<svg xmlns="http://www.w3.org/2000/svg" width="33.761" height="27.009" viewBox="0 0 33.761 27.009">
  <path id="Icon_awesome-chalkboard-teacher" data-name="Icon awesome-chalkboard-teacher" d="M10.972,18.568a1.207,1.207,0,0,0-.372.058,6.959,6.959,0,0,1-2.16.365,6.965,6.965,0,0,1-2.16-.365,1.2,1.2,0,0,0-.372-.058A5.909,5.909,0,0,0,0,24.509a2.526,2.526,0,0,0,2.532,2.5H14.348a2.526,2.526,0,0,0,2.532-2.5A5.909,5.909,0,0,0,10.972,18.568ZM8.44,16.88a5.064,5.064,0,1,0-5.064-5.064A5.064,5.064,0,0,0,8.44,16.88ZM31.229,0H10.972A2.578,2.578,0,0,0,8.44,2.616V5.064A6.676,6.676,0,0,1,11.816,6V3.376H30.385V18.568H27.009V15.192H20.256v3.376H16.235a6.723,6.723,0,0,1,2.094,3.376h12.9a2.578,2.578,0,0,0,2.532-2.616V2.616A2.578,2.578,0,0,0,31.229,0Z" transform="translate(0)" fill="#707070"/>
</svg>
