<svg xmlns="http://www.w3.org/2000/svg" width="17.5" height="17.5" viewBox="0 0 17.5 17.5">
  <path id="Icon_material-gps-fixed" data-name="Icon material-gps-fixed" d="M10.25,7.068a3.182,3.182,0,1,0,3.182,3.182A3.181,3.181,0,0,0,10.25,7.068Zm7.111,2.386a7.155,7.155,0,0,0-6.316-6.316V1.5H9.455V3.139A7.155,7.155,0,0,0,3.139,9.455H1.5v1.591H3.139a7.155,7.155,0,0,0,6.316,6.316V19h1.591V17.361a7.155,7.155,0,0,0,6.316-6.316H19V9.455ZM10.25,15.818a5.568,5.568,0,1,1,5.568-5.568A5.564,5.564,0,0,1,10.25,15.818Z" transform="translate(-1.5 -1.5)" fill="#707070"/>
</svg>
