<svg xmlns="http://www.w3.org/2000/svg" width="30.849" height="30.849" viewBox="0 0 30.849 30.849">
  <path id="Icon_metro-help" data-name="Icon metro-help" d="M17.995,1.928A15.424,15.424,0,1,0,33.419,17.352,15.424,15.424,0,0,0,17.995,1.928ZM12.211,17.352a5.784,5.784,0,1,1,5.784,5.784,5.784,5.784,0,0,1-5.784-5.784Zm18.255,5.166L25.121,20.3a7.732,7.732,0,0,0,0-5.9l5.345-2.214a13.531,13.531,0,0,1,0,10.332ZM23.161,4.881l-2.214,5.345a7.732,7.732,0,0,0-5.9,0L12.829,4.881a13.532,13.532,0,0,1,10.332,0ZM5.524,12.186,10.869,14.4a7.732,7.732,0,0,0,0,5.9L5.524,22.518a13.531,13.531,0,0,1,0-10.332Zm7.306,17.637,2.214-5.345a7.732,7.732,0,0,0,5.9,0l2.214,5.345a13.531,13.531,0,0,1-10.332,0Z" transform="translate(-2.571 -1.928)" fill="#036"/>
</svg>
