<svg id="Grupo_39" data-name="Grupo 39" xmlns="http://www.w3.org/2000/svg" xmlns:xlink="http://www.w3.org/1999/xlink" width="143.418" height="39.714" viewBox="0 0 143.418 39.714">
  <defs>
    <clipPath id="clip-path">
      <rect id="Rect치ngulo_53" data-name="Rect치ngulo 53" width="143.418" height="39.714" fill="none"/>
    </clipPath>
  </defs>
  <g id="Grupo_38" data-name="Grupo 38" clip-path="url(#clip-path)">
    <path id="Trazado_55" data-name="Trazado 55" d="M5.13,4.325h6.307c3.479,0,6.332,1.627,6.332,5.607a5.009,5.009,0,0,1-3.329,4.981l3.88,6.433h-4l-3.454-5.907H8.634v5.907H5.13Zm6.207,8.16c1.727,0,2.828-.676,2.828-2.553,0-1.9-1.151-2.528-2.828-2.528h-2.7v5.081Z" transform="translate(-3.883 -3.274)" fill="#fff"/>
    <path id="Trazado_56" data-name="Trazado 56" d="M69.634,37.869a4.628,4.628,0,0,0,2.678-.851L74.24,39.1a6.358,6.358,0,0,1-4.555,1.577c-3.8,0-6.257-2.3-6.257-5.581a5.573,5.573,0,0,1,5.882-5.532c3.83,0,5.907,2.854,5.657,6.583H66.881c.325,1.1,1.226,1.727,2.753,1.727m1.927-3.679a2.016,2.016,0,0,0-2.228-1.877,2.284,2.284,0,0,0-2.5,1.877Z" transform="translate(-48.013 -22.376)" fill="#fff"/>
    <path id="Trazado_57" data-name="Trazado 57" d="M113.795,29.628h3.73l1.226,3.029a24.711,24.711,0,0,1,.776,2.378,13.681,13.681,0,0,1,.876-2.378l1.752-3.3h.25l1.852,3.3a16.115,16.115,0,0,1,.926,2.378,21.115,21.115,0,0,1,.776-2.378l1.252-3.029h3.379l-4.981,10.938h-.3l-2.3-4.28a10.409,10.409,0,0,1-.751-2.1,13.116,13.116,0,0,1-.8,2.1L119,40.566h-.275Z" transform="translate(-86.141 -22.22)" fill="#fff"/>
    <path id="Trazado_58" data-name="Trazado 58" d="M190.024,32.338a3.336,3.336,0,0,0-2.428.976l-1.877-2a5.8,5.8,0,0,1,4.631-1.752c2.728,0,4.806,1.477,4.806,4.831v6.057H191.8l.075-1.477a3.368,3.368,0,0,1-3.154,1.7c-1.952,0-3.755-.876-3.755-3.354,0-2.278,1.727-3.2,4.355-3.2H191.8c-.05-1.226-.651-1.777-1.777-1.777m-.526,3.78c-.851,0-1.226.375-1.226.976s.5.951,1.452.951c1.377,0,2.077-.6,2.077-1.5v-.426Z" transform="translate(-140.019 -22.377)" fill="#fff"/>
    <path id="Trazado_59" data-name="Trazado 59" d="M237.5,29.784h3.379l-.05,1.927a3.21,3.21,0,0,1,3.129-2.153,3.408,3.408,0,0,1,1.652.426l-1.076,3.079a2.945,2.945,0,0,0-1.3-.325c-1.527,0-2.353.7-2.353,2.978v4.731H237.5Z" transform="translate(-179.783 -22.376)" fill="#fff"/>
    <path id="Trazado_60" data-name="Trazado 60" d="M274.887,12.715c0-3.279,2.2-5.532,4.781-5.532A3.578,3.578,0,0,1,283,8.91V0h3.379V18.071H283l.075-1.552a3.516,3.516,0,0,1-3.354,1.777c-2.6,0-4.831-2.3-4.831-5.581m8.21,0a2.316,2.316,0,0,0-2.4-2.553,2.274,2.274,0,0,0-2.328,2.553c0,1.677.9,2.628,2.328,2.628a2.328,2.328,0,0,0,2.4-2.628" transform="translate(-208.086)" fill="#fff"/>
    <path id="Trazado_61" data-name="Trazado 61" d="M334.935,4.325h3.5v7.208h7.284V4.325h3.5v17.02h-3.5V14.662h-7.284v6.683h-3.5Z" transform="translate(-253.542 -3.274)" fill="#fff"/>
    <path id="Trazado_62" data-name="Trazado 62" d="M403.946,35.141a5.88,5.88,0,1,1,5.882,5.531,5.6,5.6,0,0,1-5.882-5.531m8.285,0a2.428,2.428,0,1,0-4.831,0,2.428,2.428,0,1,0,4.831,0" transform="translate(-305.782 -22.376)" fill="#fff"/>
    <path id="Trazado_63" data-name="Trazado 63" d="M461.316,36.643V30.486H464.7v5.932c0,1.2.575,1.9,1.777,1.9a1.918,1.918,0,0,0,2.1-2.127V30.486h3.379V41.149h-3.379l.075-1.752a3.611,3.611,0,0,1-3.354,1.977c-2.328,0-3.98-1.7-3.98-4.73" transform="translate(-349.211 -23.078)" fill="#fff"/>
    <path id="Trazado_64" data-name="Trazado 64" d="M516.009,29.784h3.379l-.05,1.927a3.21,3.21,0,0,1,3.129-2.153,3.408,3.408,0,0,1,1.652.426l-1.076,3.079a2.946,2.946,0,0,0-1.3-.325c-1.527,0-2.353.7-2.353,2.978v4.731h-3.379Z" transform="translate(-390.613 -22.376)" fill="#fff"/>
    <path id="Trazado_65" data-name="Trazado 65" d="M552.163,38.645l1.977-1.752a3.82,3.82,0,0,0,2.653,1.127c1.1,0,1.452-.2,1.452-.651,0-.575-.676-.575-2.4-1.026-1.452-.375-3.078-1.176-3.078-3.4,0-2.4,1.852-3.379,4.13-3.379a5.158,5.158,0,0,1,3.88,1.477l-1.8,1.927a3.291,3.291,0,0,0-2.053-.8c-.776,0-1.151.2-1.151.626,0,.6.676.676,2.128,1,1.552.35,3.5,1.076,3.5,3.329,0,1.952-1.026,3.554-4.38,3.554a5.915,5.915,0,0,1-4.856-2.027" transform="translate(-417.981 -22.376)" fill="#fff"/>
    <path id="Trazado_66" data-name="Trazado 66" d="M0,112.476H1.083l2.6,6.4a12.613,12.613,0,0,1,.4,1.277,12.64,12.64,0,0,1,.4-1.277l2.582-6.4H8.078L4.15,122.012H3.983Z" transform="translate(0 -85.143)" fill="#fff"/>
    <path id="Trazado_67" data-name="Trazado 67" d="M42.463,129.515c0-1.11-.5-1.541-1.346-1.541a1.961,1.961,0,0,0-1.679.833l-.6-.541a2.732,2.732,0,0,1,2.346-1.11,2.112,2.112,0,0,1,2.248,2.346v3.525h-.972l.042-.861a2.136,2.136,0,0,1-1.9.972c-1.222,0-2.11-.555-2.11-1.749s.972-1.735,2.179-1.735h1.791Zm-1.721.875c-.736,0-1.3.264-1.3.958,0,.652.486,1,1.388,1s1.638-.486,1.638-1.235v-.722Z" transform="translate(-29.139 -96.256)" fill="#fff"/>
    <rect id="Rect치ngulo_52" data-name="Rect치ngulo 52" width="0.972" height="10.022" transform="translate(17.751 26.75)" fill="#fff"/>
    <path id="Trazado_68" data-name="Trazado 68" d="M90.006,130.154a3.04,3.04,0,1,1,3.054,2.984,2.99,2.99,0,0,1-3.054-2.984m5.094,0a2.056,2.056,0,1,0-2.04,2.151,2.013,2.013,0,0,0,2.04-2.151" transform="translate(-68.133 -96.256)" fill="#fff"/>
    <path id="Trazado_69" data-name="Trazado 69" d="M127.7,127.323h.972l-.028,1.124a1.777,1.777,0,0,1,1.679-1.235,1.673,1.673,0,0,1,1,.278l-.375.847a1.341,1.341,0,0,0-.791-.222c-.819,0-1.485.583-1.485,1.929v3.026H127.7Z" transform="translate(-96.667 -96.298)" fill="#fff"/>
    <path id="Trazado_70" data-name="Trazado 70" d="M155.256,129.515c0-1.11-.5-1.541-1.346-1.541a1.961,1.961,0,0,0-1.679.833l-.6-.541a2.732,2.732,0,0,1,2.346-1.11,2.112,2.112,0,0,1,2.248,2.346v3.525h-.972l.042-.861a2.136,2.136,0,0,1-1.9.972c-1.222,0-2.11-.555-2.11-1.749s.972-1.735,2.179-1.735h1.791Zm-1.721.875c-.736,0-1.3.264-1.3.958,0,.652.486,1,1.388,1s1.638-.486,1.638-1.235v-.722Z" transform="translate(-114.522 -96.256)" fill="#fff"/>
    <path id="Trazado_71" data-name="Trazado 71" d="M185.553,127.281h.972l-.028,1.083a1.94,1.94,0,0,1,1.8-1.207,1.722,1.722,0,0,1,1.735,1.207,2.223,2.223,0,0,1,1.985-1.207,1.961,1.961,0,0,1,2.04,2.193v3.678H193.1v-3.553c0-.916-.361-1.43-1.263-1.43s-1.541.625-1.541,1.763v3.22h-.972v-3.553c0-.916-.361-1.43-1.249-1.43a1.544,1.544,0,0,0-1.555,1.763v3.22h-.972Z" transform="translate(-140.461 -96.256)" fill="#fff"/>
    <path id="Trazado_72" data-name="Trazado 72" d="M233.011,130.154a3.04,3.04,0,1,1,3.054,2.984,2.99,2.99,0,0,1-3.054-2.984m5.094,0a2.056,2.056,0,1,0-2.04,2.151,2.013,2.013,0,0,0,2.04-2.151" transform="translate(-176.387 -96.256)" fill="#fff"/>
    <path id="Trazado_73" data-name="Trazado 73" d="M268.249,131.8l.75-.43a1.826,1.826,0,0,0,1.665.972c.777,0,1.222-.333,1.222-.861,0-.625-.5-.763-1.5-1.055-.9-.264-1.735-.625-1.735-1.707,0-1,.833-1.568,1.888-1.568a2.232,2.232,0,0,1,1.915.93l-.666.513a1.471,1.471,0,0,0-1.249-.652c-.625,0-1,.291-1,.736,0,.541.347.694,1.36.985.972.264,1.9.652,1.9,1.763,0,.972-.652,1.707-2.1,1.707a2.631,2.631,0,0,1-2.457-1.332" transform="translate(-203.061 -96.255)" fill="#fff"/>
    <path id="Trazado_74" data-name="Trazado 74" d="M317.4,125.54v-3.192h-.888v-.819h.888v-1.971h.958v1.971h1.61v.819h-1.61v3.207c0,.763.264,1,.68,1a1.016,1.016,0,0,0,.819-.361l.472.652a1.8,1.8,0,0,1-1.388.555c-.875,0-1.541-.5-1.541-1.86" transform="translate(-239.594 -90.504)" fill="#fff"/>
    <path id="Trazado_75" data-name="Trazado 75" d="M343.407,131.195v-3.526h.972V131.1c0,1,.472,1.555,1.416,1.555a1.684,1.684,0,0,0,1.791-1.818v-3.165h.972v5.746h-.972l.028-1.166a2.191,2.191,0,0,1-2.054,1.291,2.1,2.1,0,0,1-2.151-2.346" transform="translate(-259.955 -96.644)" fill="#fff"/>
    <path id="Trazado_76" data-name="Trazado 76" d="M396.608,125.54v-3.192h-.888v-.819h.888v-1.971h.958v1.971h1.61v.819h-1.61v3.207c0,.763.264,1,.68,1a1.016,1.016,0,0,0,.819-.361l.472.652a1.8,1.8,0,0,1-1.388.555c-.874,0-1.541-.5-1.541-1.86" transform="translate(-299.555 -90.504)" fill="#fff"/>
    <path id="Trazado_77" data-name="Trazado 77" d="M422.106,115.855a.694.694,0,1,1,1.388,0,.694.694,0,0,1-1.388,0m.208,2.346h.972v5.747h-.972Z" transform="translate(-319.529 -87.176)" fill="#fff"/>
    <path id="Trazado_78" data-name="Trazado 78" d="M442.861,132.319a2.348,2.348,0,0,0,1.818-.763l.6.583a3.044,3.044,0,0,1-2.415,1,2.992,2.992,0,1,1-.139-5.982c1.846,0,2.956,1.416,2.887,3.317h-4.886a1.983,1.983,0,0,0,2.138,1.846m1.777-2.582a1.8,1.8,0,0,0-1.915-1.763,1.925,1.925,0,0,0-1.985,1.763Z" transform="translate(-332.887 -96.256)" fill="#fff"/>
    <path id="Trazado_79" data-name="Trazado 79" d="M476.417,127.281h.972l-.028,1.083a1.94,1.94,0,0,1,1.8-1.207,1.722,1.722,0,0,1,1.735,1.207,2.224,2.224,0,0,1,1.985-1.207,1.962,1.962,0,0,1,2.041,2.193v3.678h-.958v-3.553c0-.916-.361-1.43-1.263-1.43s-1.54.625-1.54,1.763v3.22h-.972v-3.553c0-.916-.361-1.43-1.249-1.43a1.543,1.543,0,0,0-1.554,1.763v3.22h-.972Z" transform="translate(-360.642 -96.256)" fill="#fff"/>
    <path id="Trazado_80" data-name="Trazado 80" d="M525.419,127.281h.957l-.028,1.235a2.4,2.4,0,0,1,2.234-1.36,3,3,0,0,1-.014,5.982,2.4,2.4,0,0,1-2.193-1.3v4.136h-.957Zm4.941,2.859a1.955,1.955,0,0,0-1.985-2.123,2.143,2.143,0,1,0,1.985,2.123" transform="translate(-397.736 -96.256)" fill="#fff"/>
    <path id="Trazado_81" data-name="Trazado 81" d="M561.055,130.154a3.04,3.04,0,1,1,3.054,2.984,2.99,2.99,0,0,1-3.054-2.984m5.094,0a2.057,2.057,0,1,0-2.04,2.151,2.013,2.013,0,0,0,2.04-2.151" transform="translate(-424.712 -96.256)" fill="#fff"/>
  </g>
</svg>
